<?xml version="1.0" encoding="utf-8"?>
<!-- Generator: Adobe Illustrator 23.0.1, SVG Export Plug-In . SVG Version: 6.00 Build 0)  -->
<svg version="1.1" id="Camada_1" xmlns="http://www.w3.org/2000/svg" xmlns:xlink="http://www.w3.org/1999/xlink" x="0px" y="0px"
	 viewBox="0 0 1798 219" style="enable-background:new 0 0 1798 219;" xml:space="preserve">
<style type="text/css">
	.st0{fill:url(#SVGID_1_);}
	.st1{fill:url(#SVGID_2_);}
	.st2{fill:url(#SVGID_3_);}
	.st3{fill:url(#SVGID_4_);}
	.st4{fill:url(#SVGID_5_);}
	.st5{fill:url(#SVGID_6_);}
	.st6{fill:url(#SVGID_7_);}
	.st7{fill:url(#SVGID_8_);}
	.st8{fill:url(#SVGID_9_);}
	.st9{fill:url(#SVGID_10_);}
	.st10{fill:url(#SVGID_11_);}
</style>
<g id="FE">
	<g>
		<linearGradient id="SVGID_1_" gradientUnits="userSpaceOnUse" x1="0.38" y1="113.315" x2="155.77" y2="113.315">
			<stop  offset="0" style="stop-color:#7660FF"/>
			<stop  offset="1" style="stop-color:#B36FFF"/>
		</linearGradient>
		<path class="st0" d="M155.8,51.1H49.7v50.2h100.1v41.8H49.7v75.4H0.4V8.1h155.4V51.1z"/>
		<linearGradient id="SVGID_2_" gradientUnits="userSpaceOnUse" x1="173.51" y1="144.405" x2="332.19" y2="144.405">
			<stop  offset="0" style="stop-color:#7660FF"/>
			<stop  offset="1" style="stop-color:#B36FFF"/>
		</linearGradient>
		<path class="st1" d="M295.5,75.9c11.8,6.1,20.9,14.7,27.2,25.8c6.3,11.1,9.5,24.1,9.5,38.9c0,4.8-0.5,10.7-1.5,17.7H221.6
			c1.4,7.6,5.5,13.8,12.3,18.5c6.8,4.7,15.5,7.1,26.1,7.1c7.4,0,14.6-1.1,21.6-3.3c7-2.2,13-5.3,18-9.3l24.6,26.4
			c-8.4,7.8-18.4,13.8-29.9,18c-11.5,4.2-23.8,6.3-36.8,6.3c-17.2,0-32.2-3.2-44.8-9.5s-22.3-15.3-29.1-26.9s-10.2-25.4-10.2-41.2
			c0-15.2,3.4-28.8,10.1-40.6c6.7-11.8,16.1-21,28.1-27.5s25.9-9.8,41.8-9.8C269.7,66.7,283.7,69.8,295.5,75.9z M232,111.2
			c-5.9,4.8-9.3,11.5-10.1,20.1h65.5c-0.6-8.6-3.8-15.3-9.5-20.1s-13.4-7.2-23-7.2C245.5,104,237.9,106.4,232,111.2z"/>
		<linearGradient id="SVGID_3_" gradientUnits="userSpaceOnUse" x1="349.94" y1="144.405" x2="508.62" y2="144.405">
			<stop  offset="0" style="stop-color:#7660FF"/>
			<stop  offset="1" style="stop-color:#B36FFF"/>
		</linearGradient>
		<path class="st2" d="M472,75.9c11.8,6.1,20.9,14.7,27.2,25.8s9.5,24.1,9.5,38.9c0,4.8-0.5,10.7-1.5,17.7H398
			c1.4,7.6,5.5,13.8,12.3,18.5c6.8,4.7,15.5,7.1,26.1,7.1c7.4,0,14.6-1.1,21.6-3.3c7-2.2,13-5.3,18-9.3l24.6,26.4
			c-8.4,7.8-18.4,13.8-29.9,18c-11.5,4.2-23.8,6.3-36.8,6.3c-17.2,0-32.2-3.2-44.8-9.5s-22.3-15.3-29.1-26.9s-10.2-25.4-10.2-41.2
			c0-15.2,3.4-28.8,10.1-40.6c6.7-11.8,16.1-21,28.1-27.5c12-6.5,26-9.8,41.8-9.8C446.1,66.7,460.1,69.8,472,75.9z M408.4,111.2
			c-5.9,4.8-9.3,11.5-10.1,20.1h65.5c-0.6-8.6-3.8-15.3-9.5-20.1s-13.4-7.2-23-7.2C422,104,414.3,106.4,408.4,111.2z"/>
		<linearGradient id="SVGID_4_" gradientUnits="userSpaceOnUse" x1="534.75" y1="142.625" x2="686.84" y2="142.625">
			<stop  offset="0" style="stop-color:#7660FF"/>
			<stop  offset="1" style="stop-color:#B36FFF"/>
		</linearGradient>
		<path class="st3" d="M670.5,84.8c10.9,12,16.4,28.7,16.4,49.9v83.9h-47.2v-81.1c0-9.6-2.4-17.1-7.2-22.5
			c-4.8-5.4-11.4-8.1-19.8-8.1c-9.2,0-16.6,3.1-22.2,9.3s-8.4,14.3-8.4,24.4v78.1h-47.2V70h40.9l3,17.4c5.8-6.6,12.8-11.7,20.9-15.3
			c8.1-3.6,17.1-5.4,26.9-5.4C644.9,66.7,659.5,72.7,670.5,84.8z"/>
		<linearGradient id="SVGID_5_" gradientUnits="userSpaceOnUse" x1="712.07" y1="144.28" x2="876.19" y2="144.28">
			<stop  offset="0" style="stop-color:#7660FF"/>
			<stop  offset="1" style="stop-color:#B36FFF"/>
		</linearGradient>
		<path class="st4" d="M876.2,70v148.5h-40.9l-3-17.7c-12.6,13.8-29.1,20.7-49.3,20.7c-13.8,0-26.1-3.3-36.8-9.8
			c-10.7-6.5-19.1-15.6-25.1-27.4c-6-11.7-9-25.1-9-40.1c0-15,3-28.4,9-40.1s14.4-20.8,25.1-27.3s23-9.8,36.8-9.8
			c10,0,19.2,1.8,27.7,5.3c8.4,3.5,15.6,8.6,21.6,15.2l3-17.4L876.2,70L876.2,70z M819.7,171.5c6.6-6.9,9.9-16,9.9-27.2
			s-3.3-20.3-9.9-27.2c-6.6-6.9-15.1-10.4-25.5-10.4s-18.9,3.5-25.4,10.5c-6.5,7-9.8,16-9.8,27.1s3.3,20,9.8,27.1
			c6.5,7,15,10.5,25.4,10.5C804.5,181.8,813.1,178.4,819.7,171.5z"/>
		<linearGradient id="SVGID_6_" gradientUnits="userSpaceOnUse" x1="911.64" y1="142.625" x2="1063.73" y2="142.625">
			<stop  offset="0" style="stop-color:#7660FF"/>
			<stop  offset="1" style="stop-color:#B36FFF"/>
		</linearGradient>
		<path class="st5" d="M1047.3,84.8c10.9,12,16.4,28.7,16.4,49.9v83.9h-47.2v-81.1c0-9.6-2.4-17.1-7.2-22.5
			c-4.8-5.4-11.4-8.1-19.8-8.1c-9.2,0-16.6,3.1-22.2,9.3s-8.4,14.3-8.4,24.4v78.1h-47.2V70h40.9l3,17.4c5.8-6.6,12.8-11.7,20.9-15.3
			s17.1-5.4,26.9-5.4C1021.8,66.7,1036.4,72.7,1047.3,84.8z"/>
		<linearGradient id="SVGID_7_" gradientUnits="userSpaceOnUse" x1="1088.98" y1="144.265" x2="1230.55" y2="144.265">
			<stop  offset="0" style="stop-color:#7660FF"/>
			<stop  offset="1" style="stop-color:#B36FFF"/>
		</linearGradient>
		<path class="st6" d="M1127.6,212.4c-12.3-6.3-21.8-15.3-28.6-26.9c-6.7-11.6-10.1-25.3-10.1-40.9c0-15.4,3.4-29,10.2-40.7
			c6.8-11.7,16.3-20.8,28.6-27.3c12.2-6.5,26.3-9.8,42.4-9.8c11,0,21.5,1.9,31.6,5.9s18.9,9.7,26.8,17.3l-26.2,28.6
			c-8.4-7.8-18.3-11.7-29.8-11.7c-10.8,0-19.6,3.5-26.4,10.4c-6.8,6.9-10.2,16-10.2,27.2s3.3,20.3,10.1,27.2
			c6.7,6.9,15.6,10.4,26.6,10.4c12.2,0,22.6-4.3,31.3-12.9l26.8,28.3c-16.6,16.4-36.5,24.6-59.5,24.6
			C1154.4,221.8,1139.9,218.7,1127.6,212.4z"/>
		<linearGradient id="SVGID_8_" gradientUnits="userSpaceOnUse" x1="1240.76" y1="144.405" x2="1399.45" y2="144.405">
			<stop  offset="0" style="stop-color:#7660FF"/>
			<stop  offset="1" style="stop-color:#B36FFF"/>
		</linearGradient>
		<path class="st7" d="M1362.8,75.9c11.8,6.1,20.9,14.7,27.2,25.8c6.3,11.1,9.5,24.1,9.5,38.9c0,4.8-0.5,10.7-1.5,17.7h-109.1
			c1.4,7.6,5.5,13.8,12.3,18.5c6.8,4.7,15.5,7.1,26.2,7.1c7.4,0,14.6-1.1,21.6-3.3c7-2.2,13-5.3,18-9.3l24.7,26.4
			c-8.4,7.8-18.4,13.8-29.9,18c-11.5,4.2-23.8,6.3-36.8,6.3c-17.2,0-32.2-3.2-44.8-9.5s-22.3-15.3-29.2-26.9s-10.2-25.4-10.2-41.2
			c0-15.2,3.3-28.8,10.1-40.6c6.7-11.8,16.1-21,28.1-27.5s25.9-9.8,41.8-9.8C1336.9,66.7,1351,69.8,1362.8,75.9z M1299.2,111.2
			c-5.9,4.8-9.3,11.5-10.1,20.1h65.5c-0.6-8.6-3.8-15.3-9.5-20.1s-13.4-7.2-23-7.2C1312.8,104,1305.1,106.4,1299.2,111.2z"/>
		<linearGradient id="SVGID_9_" gradientUnits="userSpaceOnUse" x1="1421.6899" y1="111.22" x2="1476.99" y2="111.22">
			<stop  offset="0" style="stop-color:#7660FF"/>
			<stop  offset="1" style="stop-color:#B36FFF"/>
		</linearGradient>
		<path class="st8" d="M1429.3,48.1c-5.1-4.8-7.7-10.9-7.7-18.3c0-7.6,2.6-13.8,7.8-18.6c5.2-4.8,11.8-7.2,19.8-7.2
			c8,0,14.6,2.4,19.8,7.2c5.2,4.8,7.8,11,7.8,18.6c0,7.4-2.6,13.5-7.7,18.3s-11.8,7.2-20,7.2C1441.1,55.3,1434.5,52.9,1429.3,48.1z
			 M1425.6,70h47.2v148.5h-47.2V70z"/>
		<linearGradient id="SVGID_10_" gradientUnits="userSpaceOnUse" x1="1508.2401" y1="142.62" x2="1630.87" y2="142.62">
			<stop  offset="0" style="stop-color:#7660FF"/>
			<stop  offset="1" style="stop-color:#B36FFF"/>
		</linearGradient>
		<path class="st9" d="M1613.1,70.5c6.8,2.5,12.7,6.2,17.7,11L1611,116c-4.2-2.6-8.1-4.5-11.7-5.7s-7.4-1.8-11.4-1.8
			c-10,0-17.9,3.2-23.7,9.6c-5.8,6.4-8.7,15.8-8.7,28.3v72.1h-47.2V70h41.2l3.6,18.6c9.6-14.6,22.8-21.9,39.7-21.9
			C1599.5,66.7,1606.3,68,1613.1,70.5z"/>
		<linearGradient id="SVGID_11_" gradientUnits="userSpaceOnUse" x1="1634.48" y1="144.275" x2="1797.6802" y2="144.275">
			<stop  offset="0" style="stop-color:#7660FF"/>
			<stop  offset="1" style="stop-color:#B36FFF"/>
		</linearGradient>
		<path class="st10" d="M1672.8,212.1c-12.3-6.5-21.8-15.6-28.4-27.2s-9.9-25.1-9.9-40.6s3.3-28.9,9.9-40.6
			c6.6-11.6,16.1-20.7,28.4-27.2c12.3-6.5,26.7-9.8,43.1-9.8s30.8,3.3,43.3,9.8c12.4,6.5,21.9,15.6,28.6,27.2
			c6.6,11.6,9.9,25.1,9.9,40.6s-3.3,29-9.9,40.6c-6.6,11.6-16.1,20.7-28.6,27.2c-12.4,6.5-26.8,9.8-43.3,9.8
			S1685.1,218.6,1672.8,212.1z M1741.2,171.3c6.4-7,9.6-16,9.6-27.1s-3.2-20-9.6-27.1c-6.4-7-14.8-10.5-25.3-10.5
			c-10.2,0-18.5,3.5-24.9,10.5c-6.4,7-9.6,16-9.6,27.1s3.2,20,9.6,27.1c6.4,7,14.7,10.5,24.9,10.5
			C1726.3,181.8,1734.8,178.3,1741.2,171.3z"/>
	</g>
</g>
</svg>
