<svg width="1798" height="219" viewBox="0 0 1798 219" fill="none" xmlns="http://www.w3.org/2000/svg">
<g clip-path="url(#clip0_6_39)">
<path d="M155.4 51.1001H49.3V101.3H149.4V143.1H49.3V218.5H0V8.1001H155.4V51.1001Z" fill="black"/>
<path d="M295.1 75.9C306.9 82 316 90.6 322.3 101.7C328.6 112.8 331.8 125.8 331.8 140.6C331.8 145.4 331.3 151.3 330.3 158.3H221.2C222.6 165.9 226.7 172.1 233.5 176.8C240.3 181.5 249 183.9 259.6 183.9C267 183.9 274.2 182.8 281.2 180.6C288.2 178.4 294.2 175.3 299.2 171.3L323.8 197.7C315.4 205.5 305.4 211.5 293.9 215.7C282.4 219.9 270.1 222 257.1 222C239.9 222 224.9 218.8 212.3 212.5C199.7 206.2 190 197.2 183.2 185.6C176.4 174 173 160.2 173 144.4C173 129.2 176.4 115.6 183.1 103.8C189.8 92 199.2 82.8 211.2 76.3C223.2 69.8 237.1 66.5 253 66.5C269.3 66.7 283.3 69.8 295.1 75.9ZM231.6 111.2C225.7 116 222.3 122.7 221.5 131.3H287C286.4 122.7 283.2 116 277.5 111.2C271.8 106.4 264.1 104 254.5 104C245.1 104 237.5 106.4 231.6 111.2Z" fill="black"/>
<path d="M471.6 75.9C483.4 82 492.5 90.6 498.8 101.7C505.1 112.8 508.3 125.8 508.3 140.6C508.3 145.4 507.8 151.3 506.8 158.3H397.6C399 165.9 403.1 172.1 409.9 176.8C416.7 181.5 425.4 183.9 436 183.9C443.4 183.9 450.6 182.8 457.6 180.6C464.6 178.4 470.6 175.3 475.6 171.3L500.2 197.7C491.8 205.5 481.8 211.5 470.3 215.7C458.8 219.9 446.5 222 433.5 222C416.3 222 401.3 218.8 388.7 212.5C376.1 206.2 366.4 197.2 359.6 185.6C352.8 174 349.4 160.2 349.4 144.4C349.4 129.2 352.8 115.6 359.5 103.8C366.2 92 375.6 82.8 387.6 76.3C399.6 69.8 413.6 66.5 429.4 66.5C445.7 66.7 459.7 69.8 471.6 75.9ZM408 111.2C402.1 116 398.7 122.7 397.9 131.3H463.4C462.8 122.7 459.6 116 453.9 111.2C448.2 106.4 440.5 104 430.9 104C421.6 104 413.9 106.4 408 111.2Z" fill="black"/>
<path d="M670.1 84.8C681 96.8 686.5 113.5 686.5 134.7V218.6H639.3V137.5C639.3 127.9 636.9 120.4 632.1 115C627.3 109.6 620.7 106.9 612.3 106.9C603.1 106.9 595.7 110 590.1 116.2C584.5 122.4 581.7 130.5 581.7 140.6V218.7H534.5V70H575.4L578.4 87.4C584.2 80.8 591.2 75.7 599.3 72.1C607.4 68.5 616.4 66.7 626.2 66.7C644.5 66.7 659.1 72.7 670.1 84.8Z" fill="black"/>
<path d="M875.8 70V218.5H834.9L831.9 200.8C819.3 214.6 802.8 221.5 782.6 221.5C768.8 221.5 756.5 218.2 745.8 211.7C735.1 205.2 726.7 196.1 720.7 184.3C714.7 172.6 711.7 159.2 711.7 144.2C711.7 129.2 714.7 115.8 720.7 104.1C726.7 92.4 735.1 83.3 745.8 76.8C756.5 70.3 768.8 67 782.6 67C792.6 67 801.8 68.8 810.3 72.3C818.7 75.8 825.9 80.9 831.9 87.5L834.9 70.1L875.8 70ZM819.3 171.5C825.9 164.6 829.2 155.5 829.2 144.3C829.2 133.1 825.9 124 819.3 117.1C812.7 110.2 804.2 106.7 793.8 106.7C783.4 106.7 774.9 110.2 768.4 117.2C761.9 124.2 758.6 133.2 758.6 144.3C758.6 155.4 761.9 164.3 768.4 171.4C774.9 178.4 783.4 181.9 793.8 181.9C804.1 181.8 812.7 178.4 819.3 171.5Z" fill="black"/>
<path d="M1046.9 84.8C1057.8 96.8 1063.3 113.5 1063.3 134.7V218.6H1016.1V137.5C1016.1 127.9 1013.7 120.4 1008.9 115C1004.1 109.6 997.5 106.9 989.1 106.9C979.9 106.9 972.5 110 966.9 116.2C961.3 122.4 958.5 130.5 958.5 140.6V218.7H911.3V70H952.2L955.2 87.4C961 80.8 968 75.7 976.1 72.1C984.2 68.5 993.2 66.7 1003 66.7C1021.4 66.7 1036 72.7 1046.9 84.8Z" fill="black"/>
<path d="M1127.2 212.4C1114.9 206.1 1105.4 197.1 1098.6 185.5C1091.9 173.9 1088.5 160.2 1088.5 144.6C1088.5 129.2 1091.9 115.6 1098.7 103.9C1105.5 92.2 1115 83.1 1127.3 76.6C1139.5 70.1 1153.6 66.8 1169.7 66.8C1180.7 66.8 1191.2 68.7 1201.3 72.7C1211.4 76.7 1220.2 82.4 1228.1 90L1201.9 118.6C1193.5 110.8 1183.6 106.9 1172.1 106.9C1161.3 106.9 1152.5 110.4 1145.7 117.3C1138.9 124.2 1135.5 133.3 1135.5 144.5C1135.5 155.7 1138.8 164.8 1145.6 171.7C1152.3 178.6 1161.2 182.1 1172.2 182.1C1184.4 182.1 1194.8 177.8 1203.5 169.2L1230.3 197.5C1213.7 213.9 1193.8 222.1 1170.8 222.1C1154 221.8 1139.5 218.7 1127.2 212.4Z" fill="black"/>
<path d="M1362.4 75.9C1374.2 82 1383.3 90.6 1389.6 101.7C1395.9 112.8 1399.1 125.8 1399.1 140.6C1399.1 145.4 1398.6 151.3 1397.6 158.3H1288.5C1289.9 165.9 1294 172.1 1300.8 176.8C1307.6 181.5 1316.3 183.9 1327 183.9C1334.4 183.9 1341.6 182.8 1348.6 180.6C1355.6 178.4 1361.6 175.3 1366.6 171.3L1391.3 197.7C1382.9 205.5 1372.9 211.5 1361.4 215.7C1349.9 219.9 1337.6 222 1324.6 222C1307.4 222 1292.4 218.8 1279.8 212.5C1267.2 206.2 1257.5 197.2 1250.6 185.6C1243.7 174 1240.4 160.2 1240.4 144.4C1240.4 129.2 1243.7 115.6 1250.5 103.8C1257.2 92 1266.6 82.8 1278.6 76.3C1290.6 69.8 1304.5 66.5 1320.4 66.5C1336.5 66.7 1350.6 69.8 1362.4 75.9ZM1298.8 111.2C1292.9 116 1289.5 122.7 1288.7 131.3H1354.2C1353.6 122.7 1350.4 116 1344.7 111.2C1339 106.4 1331.3 104 1321.7 104C1312.4 104 1304.7 106.4 1298.8 111.2Z" fill="black"/>
<path d="M1428.9 48.1C1423.8 43.3 1421.2 37.2 1421.2 29.8C1421.2 22.2 1423.8 16 1429 11.2C1434.2 6.4 1440.8 4 1448.8 4C1456.8 4 1463.4 6.4 1468.6 11.2C1473.8 16 1476.4 22.2 1476.4 29.8C1476.4 37.2 1473.8 43.3 1468.7 48.1C1463.6 52.9 1456.9 55.3 1448.7 55.3C1440.7 55.3 1434.1 52.9 1428.9 48.1ZM1425.2 70H1472.4V218.5H1425.2V70Z" fill="black"/>
<path d="M1612.7 70.5C1619.5 73 1625.4 76.7 1630.4 81.5L1610.6 116C1606.4 113.4 1602.5 111.5 1598.9 110.3C1595.3 109.1 1591.5 108.5 1587.5 108.5C1577.5 108.5 1569.6 111.7 1563.8 118.1C1558 124.5 1555.1 133.9 1555.1 146.4V218.5H1507.9V70H1549.1L1552.7 88.6C1562.3 74 1575.5 66.7 1592.4 66.7C1599.1 66.7 1605.9 68 1612.7 70.5Z" fill="black"/>
<path d="M1672.4 212.1C1660.1 205.6 1650.6 196.5 1644 184.9C1637.4 173.3 1634.1 159.8 1634.1 144.3C1634.1 128.8 1637.4 115.4 1644 103.7C1650.6 92.1 1660.1 83 1672.4 76.5C1684.7 70 1699.1 66.7 1715.5 66.7C1731.9 66.7 1746.3 70 1758.8 76.5C1771.2 83 1780.7 92.1 1787.4 103.7C1794 115.3 1797.3 128.8 1797.3 144.3C1797.3 159.8 1794 173.3 1787.4 184.9C1780.8 196.5 1771.3 205.6 1758.8 212.1C1746.4 218.6 1732 221.9 1715.5 221.9C1699 221.9 1684.7 218.6 1672.4 212.1ZM1740.8 171.3C1747.2 164.3 1750.4 155.3 1750.4 144.2C1750.4 133.1 1747.2 124.2 1740.8 117.1C1734.4 110.1 1726 106.6 1715.5 106.6C1705.3 106.6 1697 110.1 1690.6 117.1C1684.2 124.1 1681 133.1 1681 144.2C1681 155.3 1684.2 164.2 1690.6 171.3C1697 178.3 1705.3 181.8 1715.5 181.8C1725.9 181.8 1734.4 178.3 1740.8 171.3Z" fill="black"/>
</g>
<defs>
<clipPath id="clip0_6_39">
<rect width="1798" height="219" fill="white"/>
</clipPath>
</defs>
</svg>
