<svg width="1798" height="219" viewBox="0 0 1798 219" fill="none" xmlns="http://www.w3.org/2000/svg">
<g clip-path="url(#clip0_6_16)">
<path d="M155.39 51.1H49.29V101.29H149.37V143.07H49.29V218.51H0V8.12H155.39V51.1Z" fill="white"/>
<path d="M295.14 75.9001C306.96 82.0101 316.03 90.6301 322.34 101.75C328.65 112.87 331.81 125.85 331.81 140.67C331.81 145.48 331.31 151.39 330.31 158.4H221.21C222.61 166.02 226.72 172.18 233.53 176.88C240.34 181.59 249.06 183.94 259.68 183.94C267.09 183.94 274.3 182.84 281.32 180.63C288.33 178.43 294.34 175.32 299.35 171.31L324 197.76C315.58 205.57 305.61 211.59 294.1 215.79C282.58 220 270.3 222.1 257.28 222.1C240.04 222.1 225.12 218.94 212.5 212.63C199.88 206.32 190.16 197.35 183.35 185.73C176.54 174.11 173.13 160.38 173.13 144.55C173.13 129.33 176.48 115.8 183.2 103.98C189.91 92.1601 199.28 82.9901 211.3 76.4801C223.32 69.9701 237.25 66.7101 253.08 66.7101C269.3 66.7301 283.32 69.7901 295.14 75.9001ZM231.58 111.21C225.67 116.02 222.31 122.73 221.51 131.35H287.03C286.43 122.74 283.27 116.02 277.56 111.21C271.85 106.4 264.19 104 254.57 104C245.15 104 237.48 106.4 231.58 111.21Z" fill="white"/>
<path d="M471.57 75.9001C483.39 82.0101 492.46 90.6301 498.77 101.75C505.08 112.87 508.24 125.85 508.24 140.67C508.24 145.48 507.74 151.39 506.74 158.4H397.64C399.04 166.02 403.15 172.18 409.96 176.88C416.77 181.59 425.49 183.94 436.11 183.94C443.52 183.94 450.73 182.84 457.75 180.63C464.76 178.43 470.77 175.32 475.78 171.31L500.43 197.76C492.01 205.57 482.04 211.59 470.53 215.79C459.01 220 446.73 222.1 433.71 222.1C416.47 222.1 401.55 218.94 388.93 212.63C376.31 206.32 366.59 197.35 359.78 185.73C352.97 174.11 349.56 160.38 349.56 144.55C349.56 129.33 352.91 115.8 359.63 103.98C366.34 92.1601 375.71 82.9901 387.73 76.4801C399.75 69.9701 413.68 66.7101 429.51 66.7101C445.72 66.7301 459.74 69.7901 471.57 75.9001ZM408 111.21C402.09 116.02 398.73 122.73 397.93 131.35H463.45C462.85 122.74 459.69 116.02 453.98 111.21C448.27 106.4 440.61 104 430.99 104C421.57 104 413.91 106.4 408 111.21Z" fill="white"/>
<path d="M670.08 84.7701C681 96.7901 686.46 113.43 686.46 134.66V218.51H639.27V137.36C639.27 127.74 636.87 120.23 632.06 114.82C627.25 109.41 620.64 106.71 612.22 106.71C603 106.71 595.59 109.82 589.98 116.03C584.37 122.24 581.56 130.36 581.56 140.38V218.52H534.37V70.0401H575.25L578.26 87.4701C584.07 80.8601 591.03 75.7501 599.15 72.1401C607.26 68.5301 616.23 66.7301 626.05 66.7301C644.48 66.7301 659.16 72.7401 670.08 84.7701Z" fill="white"/>
<path d="M875.81 70.04V218.51H834.93L831.92 200.78C819.3 214.61 802.86 221.52 782.63 221.52C768.8 221.52 756.53 218.27 745.81 211.75C735.09 205.24 726.72 196.12 720.71 184.4C714.7 172.68 711.69 159.3 711.69 144.28C711.69 129.25 714.7 115.88 720.71 104.16C726.72 92.44 735.09 83.32 745.81 76.81C756.53 70.3 768.8 67.04 782.63 67.04C792.65 67.04 801.87 68.8 810.28 72.3C818.7 75.81 825.91 80.87 831.92 87.48L834.93 70.05H875.81V70.04ZM819.3 171.48C825.91 164.57 829.22 155.5 829.22 144.28C829.22 133.06 825.91 123.99 819.3 117.08C812.69 110.17 804.17 106.71 793.75 106.71C783.33 106.71 774.86 110.22 768.35 117.23C761.84 124.25 758.58 133.26 758.58 144.28C758.58 155.3 761.83 164.32 768.35 171.33C774.86 178.35 783.33 181.85 793.75 181.85C804.17 181.84 812.69 178.39 819.3 171.48Z" fill="white"/>
<path d="M1046.97 84.7701C1057.89 96.7901 1063.35 113.43 1063.35 134.66V218.51H1016.16V137.36C1016.16 127.74 1013.76 120.23 1008.95 114.82C1004.14 109.41 997.53 106.71 989.11 106.71C979.89 106.71 972.48 109.82 966.87 116.03C961.26 122.24 958.45 130.36 958.45 140.38V218.52H911.26V70.0401H952.14L955.14 87.4701C960.95 80.8601 967.91 75.7501 976.03 72.1401C984.15 68.5301 993.11 66.7301 1002.93 66.7301C1021.37 66.7301 1036.05 72.7401 1046.97 84.7701Z" fill="white"/>
<path d="M1127.22 212.35C1114.9 206.04 1105.38 197.07 1098.67 185.45C1091.95 173.83 1088.6 160.2 1088.6 144.57C1088.6 129.14 1092 115.57 1098.82 103.84C1105.63 92.1201 1115.15 83.0001 1127.37 76.4901C1139.59 69.9801 1153.72 66.7201 1169.75 66.7201C1180.77 66.7201 1191.29 68.6701 1201.31 72.5801C1211.33 76.4901 1220.24 82.2501 1228.06 89.8601L1201.91 118.41C1193.49 110.6 1183.58 106.69 1172.16 106.69C1161.34 106.69 1152.52 110.15 1145.71 117.06C1138.9 123.97 1135.49 133.04 1135.49 144.26C1135.49 155.48 1138.84 164.55 1145.56 171.46C1152.27 178.37 1161.14 181.83 1172.16 181.83C1184.38 181.83 1194.8 177.52 1203.42 168.91L1230.17 197.16C1213.54 213.59 1193.7 221.81 1170.66 221.81C1154.01 221.82 1139.54 218.66 1127.22 212.35Z" fill="white"/>
<path d="M1362.4 75.9001C1374.22 82.0101 1383.29 90.6301 1389.6 101.75C1395.91 112.87 1399.07 125.85 1399.07 140.67C1399.07 145.48 1398.57 151.39 1397.57 158.4H1288.47C1289.87 166.02 1293.98 172.18 1300.79 176.88C1307.6 181.59 1316.32 183.94 1326.94 183.94C1334.35 183.94 1341.56 182.84 1348.58 180.63C1355.59 178.43 1361.6 175.32 1366.61 171.31L1391.26 197.76C1382.84 205.57 1372.88 211.59 1361.35 215.79C1349.83 220 1337.56 222.1 1324.53 222.1C1307.29 222.1 1292.37 218.94 1279.75 212.63C1267.13 206.32 1257.41 197.35 1250.6 185.73C1243.79 174.11 1240.38 160.38 1240.38 144.55C1240.38 129.33 1243.73 115.8 1250.45 103.98C1257.16 92.1601 1266.53 82.9901 1278.55 76.4801C1290.57 69.9701 1304.5 66.7101 1320.33 66.7101C1336.55 66.7301 1350.58 69.7901 1362.4 75.9001ZM1298.83 111.21C1292.92 116.02 1289.56 122.73 1288.76 131.35H1354.28C1353.68 122.74 1350.52 116.02 1344.81 111.21C1339.1 106.4 1331.43 104 1321.82 104C1312.41 104 1304.74 106.4 1298.83 111.21Z" fill="white"/>
<path d="M1428.97 48.1001C1423.86 43.2901 1421.31 37.1801 1421.31 29.7701C1421.31 22.1601 1423.91 15.9401 1429.12 11.1401C1434.33 6.33005 1440.94 3.93005 1448.96 3.93005C1456.97 3.93005 1463.58 6.33005 1468.8 11.1401C1474.01 15.9501 1476.61 22.1601 1476.61 29.7701C1476.61 37.1901 1474.06 43.2901 1468.95 48.1001C1463.84 52.9101 1457.18 55.3101 1448.96 55.3101C1440.74 55.3101 1434.08 52.9101 1428.97 48.1001ZM1425.21 70.0401H1472.4V218.51H1425.21V70.0401Z" fill="white"/>
<path d="M1612.76 70.4901C1619.57 73.0001 1625.48 76.6501 1630.49 81.4601L1610.65 116.02C1606.44 113.42 1602.53 111.51 1598.93 110.31C1595.33 109.11 1591.51 108.51 1587.51 108.51C1577.49 108.51 1569.58 111.72 1563.77 118.13C1557.96 124.55 1555.05 133.96 1555.05 146.38V218.51H1507.86V70.0401H1549.04L1552.65 88.6701C1562.27 74.0501 1575.49 66.7301 1592.32 66.7301C1599.13 66.7301 1605.95 67.9901 1612.76 70.4901Z" fill="white"/>
<path d="M1672.42 212.05C1660.1 205.54 1650.63 196.47 1644.02 184.85C1637.41 173.23 1634.1 159.71 1634.1 144.28C1634.1 128.85 1637.41 115.33 1644.02 103.7C1650.63 92.0801 1660.1 83.0101 1672.42 76.5001C1684.74 69.9901 1699.12 66.7301 1715.55 66.7301C1731.98 66.7301 1746.4 69.9901 1758.83 76.5001C1771.25 83.0101 1780.77 92.0801 1787.38 103.7C1793.99 115.32 1797.3 128.85 1797.3 144.28C1797.3 159.71 1793.99 173.24 1787.38 184.85C1780.77 196.47 1771.25 205.54 1758.83 212.05C1746.4 218.56 1731.98 221.82 1715.55 221.82C1699.12 221.82 1684.75 218.56 1672.42 212.05ZM1740.8 171.32C1747.21 164.31 1750.42 155.29 1750.42 144.27C1750.42 133.25 1747.21 124.24 1740.8 117.22C1734.38 110.21 1725.97 106.7 1715.55 106.7C1705.33 106.7 1697.01 110.21 1690.6 117.22C1684.18 124.24 1680.98 133.25 1680.98 144.27C1680.98 155.29 1684.18 164.31 1690.6 171.32C1697.01 178.34 1705.33 181.84 1715.55 181.84C1725.97 181.84 1734.38 178.34 1740.8 171.32Z" fill="white"/>
</g>
<defs>
<clipPath id="clip0_6_16">
<rect width="1798" height="219" fill="white"/>
</clipPath>
</defs>
</svg>
